<svg width="79" height="79" viewBox="0 0 79 79" fill="none" xmlns="http://www.w3.org/2000/svg">
<g clip-path="url(#clip0_112_2)">
<path d="M39.3067 0.8932C39.2474 0.89019 39.1879 0.89019 39.1285 0.8932C38.8015 0.911755 38.4858 1.02025 38.2163 1.20664L9.83429 20.7339C9.24912 20.5965 8.64573 20.5076 8.02063 20.5076C3.61212 20.5076 0 24.1213 0 28.5317C0 32.9421 3.61212 36.5559 8.02063 36.5559C12.304 36.5559 15.8058 33.1363 16.0032 28.8974L22.2203 26.6336L11.1919 59.7365H8.91175C4.00547 59.7365 0 63.7437 0 68.6521C0 73.5605 4.00547 77.5677 8.91175 77.5677H69.5121C74.4184 77.5677 78.4238 73.5605 78.4238 68.6521C78.4238 63.7437 74.4184 59.7365 69.5121 59.7365H67.0962L40.848 1.93784C40.5722 1.32584 39.9763 0.920787 39.3059 0.889526L39.3067 0.8932Z" fill="#3B322E"/>
<path d="M38.4851 5.35461L63.1806 59.7402H14.9491L26.4961 25.084L34.4505 22.19C35.3791 21.863 35.867 20.8448 35.5402 19.9158C35.2912 19.208 34.626 18.7319 33.8761 18.7246C33.6565 18.7214 33.4381 18.759 33.2321 18.8351L15.3666 25.3336C14.9083 24.2878 14.2207 23.376 13.3859 22.6173L38.4851 5.3501V5.35461Z" fill="#001C41"/>
<path d="M8.02127 24.0775C10.5033 24.0775 12.4772 26.0522 12.4772 28.5353C12.4772 31.0185 10.5035 32.9932 8.02127 32.9932C5.53938 32.9932 3.56531 31.0185 3.56531 28.5353C3.56531 26.0522 5.53938 24.0776 8.02127 24.0775Z" fill="#EFEFEF"/>
<path d="M8.91251 63.3064C29.0739 63.326 49.3341 63.3064 69.5129 63.3064C72.5061 63.3064 74.8599 65.6613 74.8599 68.6558C74.8599 71.6503 72.5061 74.0052 69.5129 74.0052H8.91251C5.91932 74.0052 3.56543 71.6503 3.56543 68.6558C3.56543 65.6615 5.91932 63.3064 8.91251 63.3064Z" fill="#EFEFEF"/>
<path d="M38.4852 5.35107L36.5636 6.67455L60.6602 59.7402H63.1807L38.4852 5.35475V5.35107Z" fill="#06234A"/>
<path d="M31.3557 18.7245C31.1361 18.7245 30.9177 18.7583 30.7117 18.835L14.9698 24.5607C15.1161 24.8096 15.2497 25.0669 15.3665 25.3339L32.4523 19.1172C32.1412 18.867 31.7548 18.7284 31.3557 18.7237V18.7245Z" fill="#06234A"/>
<path d="M8.0213 24.0775C7.58 24.0775 7.16226 24.1595 6.76123 24.276C8.615 24.8155 9.95695 26.4939 9.95695 28.5353C9.95695 30.5768 8.615 32.2553 6.76123 32.7946C7.16226 32.9123 7.58 32.9934 8.0213 32.9934C10.5034 32.9934 12.4773 31.0186 12.4773 28.5355C12.4773 26.0524 10.5035 24.0776 8.0213 24.0775Z" fill="#BFBFBF"/>
<path d="M66.9927 63.3064C69.9859 63.3064 72.3398 65.6613 72.3398 68.6558C72.3398 71.6503 69.9859 74.0052 66.9927 74.0052H69.513C72.5062 74.0052 74.8601 71.6503 74.8601 68.6558C74.8601 65.6613 72.5062 63.3064 69.513 63.3064H66.9927Z" fill="#BFBFBF"/>
</g>
<defs>
<clipPath id="clip0_112_2">
<rect width="78.4238" height="78.4577" fill="white"/>
</clipPath>
</defs>
</svg>
