<svg width="30" height="33" viewBox="0 0 30 33" fill="none" xmlns="http://www.w3.org/2000/svg">
<g filter="url(#filter0_d_14_44)">
<path d="M25.3963 17.3438L23.6694 16.3208C23.9819 15.9908 24.3403 15.71 24.733 15.4875C24.9897 15.3391 25.1788 15.0927 25.2592 14.802C25.3396 14.5112 25.3047 14.1997 25.1622 13.9352C25.0197 13.6707 24.781 13.4746 24.4982 13.3897C24.2154 13.3048 23.9113 13.3379 23.6521 13.4818C22.9024 13.9073 22.2381 14.4746 21.6942 15.1536L17.2191 12.5L21.6932 9.85104C22.2369 10.5302 22.9013 11.0975 23.6511 11.5229C23.7796 11.5972 23.9212 11.6447 24.0678 11.6626C24.2143 11.6805 24.3628 11.6684 24.5047 11.6272C24.6467 11.5859 24.7792 11.5162 24.8948 11.4221C25.0103 11.328 25.1065 11.2114 25.1779 11.079C25.2492 10.9466 25.2943 10.8009 25.3105 10.6506C25.3267 10.5002 25.3137 10.348 25.2722 10.2028C25.2308 10.0576 25.1617 9.92225 25.069 9.80458C24.9762 9.6869 24.8617 9.58923 24.7319 9.51719C24.3394 9.29459 23.981 9.01379 23.6684 8.68385L25.3953 7.66094C25.5273 7.58852 25.6439 7.4896 25.738 7.37008C25.832 7.25055 25.9017 7.11285 25.9428 6.96516C25.984 6.81747 25.9957 6.6628 25.9774 6.51036C25.9591 6.35791 25.9111 6.2108 25.8362 6.07776C25.7614 5.94473 25.6612 5.82848 25.5416 5.73594C25.4221 5.6434 25.2856 5.57645 25.1403 5.53907C24.9951 5.50169 24.8439 5.49465 24.6959 5.51836C24.548 5.54207 24.4061 5.59604 24.2789 5.67708L22.552 6.69948C22.429 6.25674 22.3705 5.79779 22.3783 5.3375C22.3816 5.18676 22.3558 5.03685 22.3024 4.89636C22.249 4.75586 22.1691 4.62756 22.0673 4.51879C21.9655 4.41002 21.8437 4.32292 21.709 4.2625C21.5743 4.20207 21.4293 4.16951 21.2823 4.16667H21.2615C20.9687 4.16661 20.6876 4.2844 20.4786 4.49469C20.2697 4.70498 20.1495 4.99097 20.1441 5.29115C20.1284 6.16921 20.2748 7.04239 20.5758 7.86458L16.1017 10.5151V5.21771C16.9471 5.07444 17.7583 4.76817 18.4924 4.3151C18.7463 4.15825 18.9289 3.90442 19.0003 3.60944C19.0716 3.31446 19.0258 3.0025 18.8728 2.74219C18.7199 2.48187 18.4723 2.29453 18.1847 2.22137C17.897 2.14821 17.5928 2.19523 17.339 2.35208C16.9542 2.58926 16.5372 2.7667 16.1017 2.87865V1.14583C16.1017 0.841939 15.984 0.550492 15.7744 0.335607C15.5649 0.120721 15.2807 0 14.9843 0C14.688 0 14.4038 0.120721 14.1942 0.335607C13.9847 0.550492 13.867 0.841939 13.867 1.14583V2.87865C13.4315 2.7667 13.0145 2.58926 12.6297 2.35208C12.3759 2.19523 12.0717 2.14821 11.784 2.22137C11.4964 2.29453 11.2488 2.48187 11.0959 2.74219C10.9429 3.0025 10.8971 3.31446 10.9684 3.60944C11.0398 3.90442 11.2224 4.15825 11.4763 4.3151C12.2104 4.76817 13.0216 5.07444 13.867 5.21771V10.5151L9.39289 7.86458C9.69433 7.04213 9.84116 6.16858 9.82562 5.2901C9.82016 4.98993 9.70003 4.70394 9.49107 4.49365C9.28211 4.28336 9.00101 4.16557 8.70824 4.16563H8.6864C8.53966 4.1684 8.39489 4.2008 8.26035 4.26097C8.12582 4.32113 8.00417 4.40789 7.90234 4.51627C7.80051 4.62466 7.7205 4.75256 7.66688 4.89267C7.61326 5.03277 7.58709 5.18233 7.58985 5.33281C7.59804 5.79377 7.53967 6.25344 7.41666 6.69688L5.6898 5.67708C5.56263 5.5993 5.42166 5.5482 5.27507 5.52677C5.12848 5.50534 4.9792 5.51401 4.83591 5.55225C4.69261 5.5905 4.55816 5.65758 4.44036 5.74958C4.32257 5.84158 4.22378 5.95667 4.14973 6.08816C4.07569 6.21966 4.02787 6.36493 4.00906 6.51554C3.99024 6.66615 4.00081 6.8191 4.04014 6.96548C4.07947 7.11187 4.14678 7.24878 4.23815 7.36826C4.32953 7.48774 4.44316 7.5874 4.57242 7.66146L6.29928 8.68437C5.98669 9.01431 5.62831 9.29511 5.23574 9.51771C5.106 9.58975 4.99145 9.68742 4.89872 9.8051C4.80598 9.92277 4.73689 10.0581 4.69543 10.2033C4.65397 10.3485 4.64096 10.5007 4.65716 10.6511C4.67335 10.8015 4.71843 10.9471 4.78979 11.0795C4.86114 11.2119 4.95737 11.3285 5.07291 11.4226C5.18845 11.5167 5.32102 11.5864 5.46296 11.6277C5.60491 11.669 5.75342 11.681 5.89992 11.6631C6.04643 11.6452 6.18803 11.5977 6.31655 11.5234C7.06627 11.0979 7.73063 10.5306 8.2745 9.85156L12.7496 12.5L8.27551 15.149C7.73164 14.4699 7.06729 13.9026 6.31756 13.4771C6.18904 13.4028 6.04744 13.3553 5.90094 13.3374C5.75443 13.3195 5.60592 13.3316 5.46398 13.3728C5.32204 13.4141 5.18947 13.4838 5.07393 13.5779C4.95839 13.672 4.86216 13.7886 4.7908 13.921C4.71944 14.0534 4.67437 14.1991 4.65817 14.3494C4.64198 14.4998 4.65498 14.652 4.69645 14.7972C4.73791 14.9424 4.807 15.0777 4.89973 15.1954C4.99247 15.3131 5.10701 15.4108 5.23675 15.4828C5.62933 15.7054 5.9877 15.9862 6.30029 16.3161L4.57242 17.3438C4.44316 17.4178 4.32953 17.5175 4.23815 17.6369C4.14678 17.7564 4.07947 17.8933 4.04014 18.0397C4.00081 18.1861 3.99024 18.3391 4.00906 18.4897C4.02787 18.6403 4.07569 18.7855 4.14973 18.917C4.22378 19.0485 4.32257 19.1636 4.44036 19.2556C4.55816 19.3476 4.69261 19.4147 4.83591 19.453C4.9792 19.4912 5.12848 19.4999 5.27507 19.4784C5.42166 19.457 5.56263 19.4059 5.6898 19.3281L7.41666 18.3057C7.53965 18.7485 7.59818 19.2074 7.59036 19.6677C7.58519 19.9713 7.69771 20.2645 7.90321 20.4831C8.10871 20.7016 8.3904 20.8276 8.6864 20.8333H8.70723C9 20.8334 9.2811 20.7156 9.49006 20.5053C9.69902 20.295 9.81915 20.009 9.8246 19.7089C9.84034 18.8308 9.69386 17.9576 9.39289 17.1354L13.867 14.4849V19.7823C13.0216 19.9256 12.2104 20.2318 11.4763 20.6849C11.2224 20.8417 11.0398 21.0956 10.9684 21.3906C10.8971 21.6855 10.9429 21.9975 11.0959 22.2578C11.2488 22.5181 11.4964 22.7055 11.784 22.7786C12.0717 22.8518 12.3759 22.8048 12.6297 22.6479C13.0145 22.4107 13.4315 22.2333 13.867 22.1214V23.8542C13.867 24.1581 13.9847 24.4495 14.1942 24.6644C14.4038 24.8793 14.688 25 14.9843 25C15.2807 25 15.5649 24.8793 15.7744 24.6644C15.984 24.4495 16.1017 24.1581 16.1017 23.8542V22.1214C16.5372 22.2333 16.9542 22.4107 17.339 22.6479C17.5928 22.8048 17.897 22.8518 18.1847 22.7786C18.4723 22.7055 18.7199 22.5181 18.8728 22.2578C19.0258 21.9975 19.0716 21.6855 19.0003 21.3906C18.9289 21.0956 18.7463 20.8417 18.4924 20.6849C17.7583 20.2318 16.9471 19.9256 16.1017 19.7823V14.4849L20.5758 17.1354C20.2744 17.9579 20.1275 18.8314 20.1431 19.7099C20.1485 20.0101 20.2687 20.2961 20.4776 20.5064C20.6866 20.7166 20.9677 20.8344 21.2605 20.8344H21.2823C21.429 20.8316 21.5738 20.7992 21.7083 20.739C21.8429 20.6789 21.9645 20.5921 22.0664 20.4837C22.1682 20.3753 22.2482 20.2474 22.3018 20.1073C22.3554 19.9672 22.3816 19.8177 22.3788 19.6672C22.3707 19.2062 22.429 18.7466 22.552 18.3031L24.2789 19.3255C24.4061 19.4092 24.5484 19.4657 24.6975 19.4913C24.8465 19.517 24.9991 19.5114 25.1459 19.4749C25.2928 19.4384 25.4309 19.3717 25.5519 19.2789C25.6729 19.1861 25.7743 19.069 25.8499 18.9349C25.9256 18.8007 25.9739 18.6522 25.992 18.4984C26.0101 18.3445 25.9975 18.1885 25.9551 18.0398C25.9127 17.891 25.8413 17.7527 25.7452 17.633C25.6492 17.5134 25.5305 17.415 25.3963 17.3438Z" fill="#F1F1FF"/>
</g>
<defs>
<filter id="filter0_d_14_44" x="0" y="0" width="30" height="33" filterUnits="userSpaceOnUse" color-interpolation-filters="sRGB">
<feFlood flood-opacity="0" result="BackgroundImageFix"/>
<feColorMatrix in="SourceAlpha" type="matrix" values="0 0 0 0 0 0 0 0 0 0 0 0 0 0 0 0 0 0 127 0" result="hardAlpha"/>
<feOffset dy="4"/>
<feGaussianBlur stdDeviation="2"/>
<feComposite in2="hardAlpha" operator="out"/>
<feColorMatrix type="matrix" values="0 0 0 0 0 0 0 0 0 0 0 0 0 0 0 0 0 0 0.25 0"/>
<feBlend mode="normal" in2="BackgroundImageFix" result="effect1_dropShadow_14_44"/>
<feBlend mode="normal" in="SourceGraphic" in2="effect1_dropShadow_14_44" result="shape"/>
</filter>
</defs>
</svg>
